# xmcd
#
# Track frame offsets:
#	150
#	12505
#	24085
#	34762
#	50867
#	64132
#	83910
#	93412
#	105822
#	126992
#	142865
#	156985
#	175185
#	195485
#	211122
#	228552
#	240182
#	254112
#	270087
#	296800
#
# Disc length: 4163 seconds
#
# Revision: 2
# Processed by: cddbd v1.4PL0 Copyright (c) Steve Scherf et al.
# Submitted via: CDmax 1.9
#
DISCID=0d104114
DTITLE=Willie Nelson - Greatest Hits (& Some That Will Be)
DYEAR=1981
DGENRE=Country
TTITLE0=Railroad Lady
TTITLE1=Heartaches of a Fool
TTITLE2=Blue Eyes Crying In the Rain
TTITLE3=Whiskey River
TTITLE4=Good Hearted Woman
TTITLE5=Georgia On My Mind
TTITLE6=If You've Got the Money I've Got the Time
TTITLE7=Look What Thoughts Will Do
TTITLE8=Uncloudy Day
TTITLE9=Mammas Don't Let Your Babies Grow Up To Be Cowboys
TTITLE10=My Heroes Have Always Been Cowboys
TTITLE11=Help Me Make It Through the Night
TTITLE12=Angel Flying Too Close To the Ground
TTITLE13=I'd Have To Be Crazy
TTITLE14=Faded Love
TTITLE15=On the Road Again
TTITLE16=Heartbreak Hotel
TTITLE17=If You Could Touch Her At All
TTITLE18=Till I Gain Control Again
TTITLE19=Stay a Little Longer
EXTD=LABEL =CBS Inc.\nID =CGK37542\nUPC =07464-37542-2\nCOPYRIGHT =1981
EXTT0=
EXTT1=
EXTT2=
EXTT3=
EXTT4=
EXTT5=
EXTT6=
EXTT7=
EXTT8=
EXTT9=
EXTT10=
EXTT11=
EXTT12=
EXTT13=
EXTT14=
EXTT15=
EXTT16=
EXTT17=
EXTT18=
EXTT19=
PLAYORDER=
